<mxfile host="app.diagrams.net" modified="2023-05-19T06:21:55.413Z" agent="Mozilla/5.0 (Macintosh; Intel Mac OS X 10_15_7) AppleWebKit/537.36 (KHTML, like Gecko) Chrome/113.0.0.0 Safari/537.36" version="21.2.9" etag="BhAc_MvSi8AuN8yRe0o0" type="github">
  <diagram name="第 1 页" id="UhOqMrJpVa5OOBqp4UN_">
    <mxGraphModel>
      <root>
        <mxCell id="0" />
        <mxCell id="1" parent="0" />
      </root>
    </mxGraphModel>
  </diagram>
</mxfile>
